solid BooleanFragments.1
  facet normal 0.000000 0.000000 -1.000000
    outer loop
      vertex -13.500000 13.000000 0.000000
      vertex -28.500000 33.000000 0.000000
      vertex -13.500000 33.000000 0.000000
    endloop
  endfacet
  facet normal 0.000000 0.000000 -1.000000
    outer loop
      vertex -28.500000 13.000000 0.000000
      vertex -28.500000 33.000000 0.000000
      vertex -13.500000 13.000000 0.000000
    endloop
  endfacet
  facet normal 0.000000 1.000000 0.000000
    outer loop
      vertex -13.500000 33.000000 0.500000
      vertex -13.500000 33.000000 0.000000
      vertex -28.500000 33.000000 0.000000
    endloop
  endfacet
  facet normal 0.000000 1.000000 0.000000
    outer loop
      vertex -13.500000 33.000000 0.500000
      vertex -28.500000 33.000000 0.000000
      vertex -28.500000 33.000000 0.500000
    endloop
  endfacet
  facet normal 0.000000 -0.000000 1.000000
    outer loop
      vertex -13.500000 13.000000 0.500000
      vertex -13.500000 33.000000 0.500000
      vertex -28.500000 33.000000 0.500000
    endloop
  endfacet
  facet normal 0.000000 0.000000 1.000000
    outer loop
      vertex -13.500000 13.000000 0.500000
      vertex -28.500000 33.000000 0.500000
      vertex -28.500000 13.000000 0.500000
    endloop
  endfacet
  facet normal 0.000000 -1.000000 0.000000
    outer loop
      vertex -13.500000 13.000000 0.000000
      vertex -13.500000 13.000000 0.500000
      vertex -28.500000 13.000000 0.500000
    endloop
  endfacet
  facet normal 0.000000 -1.000000 0.000000
    outer loop
      vertex -13.500000 13.000000 0.000000
      vertex -28.500000 13.000000 0.500000
      vertex -28.500000 13.000000 0.000000
    endloop
  endfacet
  facet normal -1.000000 0.000000 0.000000
    outer loop
      vertex -28.500000 13.000000 0.500000
      vertex -28.500000 33.000000 0.000000
      vertex -28.500000 13.000000 0.000000
    endloop
  endfacet
  facet normal -1.000000 0.000000 0.000000
    outer loop
      vertex -28.500000 13.000000 0.500000
      vertex -28.500000 33.000000 0.500000
      vertex -28.500000 33.000000 0.000000
    endloop
  endfacet
  facet normal 1.000000 0.000000 0.000000
    outer loop
      vertex -13.500000 33.000000 0.000000
      vertex -13.500000 13.000000 0.500000
      vertex -13.500000 13.000000 0.000000
    endloop
  endfacet
  facet normal 1.000000 0.000000 0.000000
    outer loop
      vertex -13.500000 33.000000 0.500000
      vertex -13.500000 13.000000 0.500000
      vertex -13.500000 33.000000 0.000000
    endloop
  endfacet
endsolid BooleanFragments.1
