solid 
 facet normal -3.934862e-01  9.193305e-01  0.000000e+00
   outer loop
     vertex  4.161732e+01 -6.327042e+00  1.000000e+00
     vertex -5.607159e+00 -2.653977e+01  0.000000e+00
     vertex -5.607159e+00 -2.653977e+01  1.000000e+00
   endloop
 endfacet
 facet normal -3.934862e-01  9.193305e-01  0.000000e+00
   outer loop
     vertex  4.161732e+01 -6.327042e+00  1.000000e+00
     vertex  4.161732e+01 -6.327042e+00  0.000000e+00
     vertex -5.607159e+00 -2.653977e+01  0.000000e+00
   endloop
 endfacet
 facet normal  1.807283e-01  9.835331e-01  0.000000e+00
   outer loop
     vertex  8.924897e+01 -1.507955e+01  1.000000e+00
     vertex  4.161732e+01 -6.327042e+00  0.000000e+00
     vertex  4.161732e+01 -6.327042e+00  1.000000e+00
   endloop
 endfacet
 facet normal  1.807283e-01  9.835331e-01  0.000000e+00
   outer loop
     vertex  8.924897e+01 -1.507955e+01  1.000000e+00
     vertex  8.924897e+01 -1.507955e+01  0.000000e+00
     vertex  4.161732e+01 -6.327042e+00  0.000000e+00
   endloop
 endfacet
 facet normal -2.763678e-01  9.610519e-01  0.000000e+00
   outer loop
     vertex  1.403272e+02 -3.910760e-01  1.000000e+00
     vertex  8.924897e+01 -1.507955e+01  0.000000e+00
     vertex  8.924897e+01 -1.507955e+01  1.000000e+00
   endloop
 endfacet
 facet normal -2.763678e-01  9.610519e-01  0.000000e+00
   outer loop
     vertex  1.403272e+02 -3.910760e-01  1.000000e+00
     vertex  1.403272e+02 -3.910760e-01  0.000000e+00
     vertex  8.924897e+01 -1.507955e+01  0.000000e+00
   endloop
 endfacet
 facet normal  6.454733e-01  7.637828e-01  0.000000e+00
   outer loop
     vertex  1.537874e+02 -1.176628e+01  0.000000e+00
     vertex  1.403272e+02 -3.910760e-01  0.000000e+00
     vertex  1.403272e+02 -3.910760e-01  1.000000e+00
   endloop
 endfacet
 facet normal  6.454733e-01  7.637828e-01  0.000000e+00
   outer loop
     vertex  1.537874e+02 -1.176628e+01  1.000000e+00
     vertex  1.537874e+02 -1.176628e+01  0.000000e+00
     vertex  1.403272e+02 -3.910760e-01  1.000000e+00
   endloop
 endfacet
 facet normal  9.437254e-01  3.307300e-01  0.000000e+00
   outer loop
     vertex  1.620911e+02 -3.546052e+01  1.000000e+00
     vertex  1.537874e+02 -1.176628e+01  0.000000e+00
     vertex  1.537874e+02 -1.176628e+01  1.000000e+00
   endloop
 endfacet
 facet normal  9.437254e-01  3.307300e-01  0.000000e+00
   outer loop
     vertex  1.620911e+02 -3.546052e+01  1.000000e+00
     vertex  1.620911e+02 -3.546052e+01  0.000000e+00
     vertex  1.537874e+02 -1.176628e+01  0.000000e+00
   endloop
 endfacet
 facet normal  8.380679e-01 -5.455659e-01  0.000000e+00
   outer loop
     vertex  1.431171e+02 -6.460736e+01  1.000000e+00
     vertex  1.620911e+02 -3.546052e+01  0.000000e+00
     vertex  1.620911e+02 -3.546052e+01  1.000000e+00
   endloop
 endfacet
 facet normal  8.380679e-01 -5.455659e-01  0.000000e+00
   outer loop
     vertex  1.431171e+02 -6.460736e+01  1.000000e+00
     vertex  1.431171e+02 -6.460736e+01  0.000000e+00
     vertex  1.620911e+02 -3.546052e+01  0.000000e+00
   endloop
 endfacet
 facet normal  4.431900e-01 -8.964277e-01  0.000000e+00
   outer loop
     vertex  1.246907e+02 -8.074310e+01  1.000000e+00
     vertex  1.246907e+02 -8.074310e+01  0.000000e+00
     vertex  1.258609e+02 -8.016457e+01  0.000000e+00
   endloop
 endfacet
 facet normal  4.171054e-01 -9.088581e-01  0.000000e+00
   outer loop
     vertex  1.235043e+02 -8.128758e+01  1.000000e+00
     vertex  1.246907e+02 -8.074310e+01  0.000000e+00
     vertex  1.246907e+02 -8.074310e+01  1.000000e+00
   endloop
 endfacet
 facet normal  4.171054e-01 -9.088581e-01  0.000000e+00
   outer loop
     vertex  1.235043e+02 -8.128758e+01  1.000000e+00
     vertex  1.235043e+02 -8.128758e+01  0.000000e+00
     vertex  1.246907e+02 -8.074310e+01  0.000000e+00
   endloop
 endfacet
 facet normal  3.906724e-01 -9.205298e-01  0.000000e+00
   outer loop
     vertex  1.223027e+02 -8.179756e+01  1.000000e+00
     vertex  1.235043e+02 -8.128758e+01  0.000000e+00
     vertex  1.235043e+02 -8.128758e+01  1.000000e+00
   endloop
 endfacet
 facet normal  3.906724e-01 -9.205298e-01  0.000000e+00
   outer loop
     vertex  1.223027e+02 -8.179756e+01  1.000000e+00
     vertex  1.223027e+02 -8.179756e+01  0.000000e+00
     vertex  1.235043e+02 -8.128758e+01  0.000000e+00
   endloop
 endfacet
 facet normal  8.300984e-01 -5.576170e-01  0.000000e+00
   outer loop
     vertex  1.423892e+02 -6.569096e+01  1.000000e+00
     vertex  1.431171e+02 -6.460736e+01  0.000000e+00
     vertex  1.431171e+02 -6.460736e+01  1.000000e+00
   endloop
 endfacet
 facet normal  8.300984e-01 -5.576170e-01  0.000000e+00
   outer loop
     vertex  1.423892e+02 -6.569096e+01  1.000000e+00
     vertex  1.423892e+02 -6.569096e+01  0.000000e+00
     vertex  1.431171e+02 -6.460736e+01  0.000000e+00
   endloop
 endfacet
 facet normal  3.639133e-01 -9.314328e-01  0.000000e+00
   outer loop
     vertex  1.210868e+02 -8.227260e+01  1.000000e+00
     vertex  1.223027e+02 -8.179756e+01  0.000000e+00
     vertex  1.223027e+02 -8.179756e+01  1.000000e+00
   endloop
 endfacet
 facet normal  3.639133e-01 -9.314328e-01  0.000000e+00
   outer loop
     vertex  1.210868e+02 -8.227260e+01  1.000000e+00
     vertex  1.210868e+02 -8.227260e+01  0.000000e+00
     vertex  1.223027e+02 -8.179756e+01  0.000000e+00
   endloop
 endfacet
 facet normal  8.136411e-01 -5.813675e-01  0.000000e+00
   outer loop
     vertex  1.416303e+02 -6.675307e+01  1.000000e+00
     vertex  1.416303e+02 -6.675307e+01  0.000000e+00
     vertex  1.423892e+02 -6.569096e+01  0.000000e+00
   endloop
 endfacet
 facet normal  8.136411e-01 -5.813675e-01  0.000000e+00
   outer loop
     vertex  1.416303e+02 -6.675307e+01  1.000000e+00
     vertex  1.423892e+02 -6.569096e+01  0.000000e+00
     vertex  1.423892e+02 -6.569096e+01  1.000000e+00
   endloop
 endfacet
 facet normal  3.368504e-01 -9.415582e-01  0.000000e+00
   outer loop
     vertex  1.198577e+02 -8.271232e+01  1.000000e+00
     vertex  1.198577e+02 -8.271232e+01  0.000000e+00
     vertex  1.210868e+02 -8.227260e+01  0.000000e+00
   endloop
 endfacet
 facet normal  3.368504e-01 -9.415582e-01  0.000000e+00
   outer loop
     vertex  1.198577e+02 -8.271232e+01  1.000000e+00
     vertex  1.210868e+02 -8.227260e+01  0.000000e+00
     vertex  1.210868e+02 -8.227260e+01  1.000000e+00
   endloop
 endfacet
 facet normal  7.965045e-01 -6.046326e-01  0.000000e+00
   outer loop
     vertex  1.408410e+02 -6.779281e+01  1.000000e+00
     vertex  1.408410e+02 -6.779281e+01  0.000000e+00
     vertex  1.416303e+02 -6.675307e+01  0.000000e+00
   endloop
 endfacet
 facet normal  7.965045e-01 -6.046326e-01  0.000000e+00
   outer loop
     vertex  1.408410e+02 -6.779281e+01  1.000000e+00
     vertex  1.416303e+02 -6.675307e+01  0.000000e+00
     vertex  1.416303e+02 -6.675307e+01  1.000000e+00
   endloop
 endfacet
 facet normal  3.095062e-01 -9.508974e-01  0.000000e+00
   outer loop
     vertex  1.186164e+02 -8.311634e+01  1.000000e+00
     vertex  1.186164e+02 -8.311634e+01  0.000000e+00
     vertex  1.198577e+02 -8.271232e+01  0.000000e+00
   endloop
 endfacet
 facet normal  3.095062e-01 -9.508974e-01  0.000000e+00
   outer loop
     vertex  1.186164e+02 -8.311634e+01  1.000000e+00
     vertex  1.198577e+02 -8.271232e+01  0.000000e+00
     vertex  1.198577e+02 -8.271232e+01  1.000000e+00
   endloop
 endfacet
 facet normal  7.787029e-01 -6.273928e-01  0.000000e+00
   outer loop
     vertex  1.400220e+02 -6.880931e+01  1.000000e+00
     vertex  1.400220e+02 -6.880931e+01  0.000000e+00
     vertex  1.408410e+02 -6.779281e+01  0.000000e+00
   endloop
 endfacet
 facet normal  7.787029e-01 -6.273928e-01  0.000000e+00
   outer loop
     vertex  1.400220e+02 -6.880931e+01  1.000000e+00
     vertex  1.408410e+02 -6.779281e+01  0.000000e+00
     vertex  1.408410e+02 -6.779281e+01  1.000000e+00
   endloop
 endfacet
 facet normal  2.819035e-01 -9.594427e-01  0.000000e+00
   outer loop
     vertex  1.173640e+02 -8.348433e+01  1.000000e+00
     vertex  1.173640e+02 -8.348433e+01  0.000000e+00
     vertex  1.186164e+02 -8.311634e+01  0.000000e+00
   endloop
 endfacet
 facet normal  2.819035e-01 -9.594427e-01  0.000000e+00
   outer loop
     vertex  1.173640e+02 -8.348433e+01  1.000000e+00
     vertex  1.186164e+02 -8.311634e+01  0.000000e+00
     vertex  1.186164e+02 -8.311634e+01  1.000000e+00
   endloop
 endfacet
 facet normal  7.602512e-01 -6.496293e-01  0.000000e+00
   outer loop
     vertex  1.391740e+02 -6.980172e+01  1.000000e+00
     vertex  1.391740e+02 -6.980172e+01  0.000000e+00
     vertex  1.400220e+02 -6.880931e+01  0.000000e+00
   endloop
 endfacet
 facet normal  7.602512e-01 -6.496293e-01  0.000000e+00
   outer loop
     vertex  1.391740e+02 -6.980172e+01  1.000000e+00
     vertex  1.400220e+02 -6.880931e+01  0.000000e+00
     vertex  1.400220e+02 -6.880931e+01  1.000000e+00
   endloop
 endfacet
 facet normal  2.540656e-01 -9.671870e-01  0.000000e+00
   outer loop
     vertex  1.161014e+02 -8.381598e+01  1.000000e+00
     vertex  1.161014e+02 -8.381598e+01  0.000000e+00
     vertex  1.173640e+02 -8.348433e+01  0.000000e+00
   endloop
 endfacet
 facet normal  7.411646e-01 -6.713233e-01  0.000000e+00
   outer loop
     vertex  1.382977e+02 -7.076922e+01  1.000000e+00
     vertex  1.382977e+02 -7.076922e+01  0.000000e+00
     vertex  1.391740e+02 -6.980172e+01  0.000000e+00
   endloop
 endfacet
 facet normal  2.540656e-01 -9.671870e-01  0.000000e+00
   outer loop
     vertex  1.161014e+02 -8.381598e+01  1.000000e+00
     vertex  1.173640e+02 -8.348433e+01  0.000000e+00
     vertex  1.173640e+02 -8.348433e+01  1.000000e+00
   endloop
 endfacet
 facet normal  7.411646e-01 -6.713233e-01  0.000000e+00
   outer loop
     vertex  1.382977e+02 -7.076922e+01  1.000000e+00
     vertex  1.391740e+02 -6.980172e+01  0.000000e+00
     vertex  1.391740e+02 -6.980172e+01  1.000000e+00
   endloop
 endfacet
 facet normal  2.260155e-01 -9.741237e-01  0.000000e+00
   outer loop
     vertex  1.148298e+02 -8.411102e+01  1.000000e+00
     vertex  1.148298e+02 -8.411102e+01  0.000000e+00
     vertex  1.161014e+02 -8.381598e+01  0.000000e+00
   endloop
 endfacet
 facet normal  2.260155e-01 -9.741237e-01  0.000000e+00
   outer loop
     vertex  1.148298e+02 -8.411102e+01  1.000000e+00
     vertex  1.161014e+02 -8.381598e+01  0.000000e+00
     vertex  1.161014e+02 -8.381598e+01  1.000000e+00
   endloop
 endfacet
 facet normal  7.214593e-01 -6.924568e-01  0.000000e+00
   outer loop
     vertex  1.373937e+02 -7.171100e+01  1.000000e+00
     vertex  1.373937e+02 -7.171100e+01  0.000000e+00
     vertex  1.382977e+02 -7.076922e+01  0.000000e+00
   endloop
 endfacet
 facet normal  7.214593e-01 -6.924568e-01  0.000000e+00
   outer loop
     vertex  1.373937e+02 -7.171100e+01  1.000000e+00
     vertex  1.382977e+02 -7.076922e+01  0.000000e+00
     vertex  1.382977e+02 -7.076922e+01  1.000000e+00
   endloop
 endfacet
 facet normal  1.977766e-01 -9.802471e-01  0.000000e+00
   outer loop
     vertex  1.135502e+02 -8.436919e+01  1.000000e+00
     vertex  1.135502e+02 -8.436919e+01  0.000000e+00
     vertex  1.148298e+02 -8.411102e+01  0.000000e+00
   endloop
 endfacet
 facet normal  7.011516e-01 -7.130122e-01  0.000000e+00
   outer loop
     vertex  1.364630e+02 -7.262627e+01  1.000000e+00
     vertex  1.373937e+02 -7.171100e+01  0.000000e+00
     vertex  1.373937e+02 -7.171100e+01  1.000000e+00
   endloop
 endfacet
 facet normal  1.977766e-01 -9.802471e-01  0.000000e+00
   outer loop
     vertex  1.135502e+02 -8.436919e+01  1.000000e+00
     vertex  1.148298e+02 -8.411102e+01  0.000000e+00
     vertex  1.148298e+02 -8.411102e+01  1.000000e+00
   endloop
 endfacet
 facet normal  7.011516e-01 -7.130122e-01  0.000000e+00
   outer loop
     vertex  1.364630e+02 -7.262627e+01  1.000000e+00
     vertex  1.364630e+02 -7.262627e+01  0.000000e+00
     vertex  1.373937e+02 -7.171100e+01  0.000000e+00
   endloop
 endfacet
 facet normal  1.693727e-01 -9.855521e-01  0.000000e+00
   outer loop
     vertex  1.122637e+02 -8.459029e+01  1.000000e+00
     vertex  1.122637e+02 -8.459029e+01  0.000000e+00
     vertex  1.135502e+02 -8.436919e+01  0.000000e+00
   endloop
 endfacet
 facet normal  1.693727e-01 -9.855521e-01  0.000000e+00
   outer loop
     vertex  1.122637e+02 -8.459029e+01  1.000000e+00
     vertex  1.135502e+02 -8.436919e+01  0.000000e+00
     vertex  1.135502e+02 -8.436919e+01  1.000000e+00
   endloop
 endfacet
 facet normal  6.802585e-01 -7.329723e-01  0.000000e+00
   outer loop
     vertex  1.355062e+02 -7.351427e+01  1.000000e+00
     vertex  1.364630e+02 -7.262627e+01  0.000000e+00
     vertex  1.364630e+02 -7.262627e+01  1.000000e+00
   endloop
 endfacet
 facet normal  6.802585e-01 -7.329723e-01  0.000000e+00
   outer loop
     vertex  1.355062e+02 -7.351427e+01  1.000000e+00
     vertex  1.355062e+02 -7.351427e+01  0.000000e+00
     vertex  1.364630e+02 -7.262627e+01  0.000000e+00
   endloop
 endfacet
 facet normal  1.408273e-01 -9.900342e-01  0.000000e+00
   outer loop
     vertex  1.109713e+02 -8.477412e+01  1.000000e+00
     vertex  1.109713e+02 -8.477412e+01  0.000000e+00
     vertex  1.122637e+02 -8.459029e+01  0.000000e+00
   endloop
 endfacet
 facet normal  1.408273e-01 -9.900342e-01  0.000000e+00
   outer loop
     vertex  1.109713e+02 -8.477412e+01  1.000000e+00
     vertex  1.122637e+02 -8.459029e+01  0.000000e+00
     vertex  1.122637e+02 -8.459029e+01  1.000000e+00
   endloop
 endfacet
 facet normal  6.587974e-01 -7.523204e-01  0.000000e+00
   outer loop
     vertex  1.345241e+02 -7.437425e+01  1.000000e+00
     vertex  1.355062e+02 -7.351427e+01  0.000000e+00
     vertex  1.355062e+02 -7.351427e+01  1.000000e+00
   endloop
 endfacet
 facet normal  6.587974e-01 -7.523204e-01  0.000000e+00
   outer loop
     vertex  1.345241e+02 -7.437425e+01  1.000000e+00
     vertex  1.345241e+02 -7.437425e+01  0.000000e+00
     vertex  1.355062e+02 -7.351427e+01  0.000000e+00
   endloop
 endfacet
 facet normal  1.121644e-01 -9.936897e-01  0.000000e+00
   outer loop
     vertex  1.096742e+02 -8.492054e+01  1.000000e+00
     vertex  1.096742e+02 -8.492054e+01  0.000000e+00
     vertex  1.109713e+02 -8.477412e+01  0.000000e+00
   endloop
 endfacet
 facet normal  1.121644e-01 -9.936897e-01  0.000000e+00
   outer loop
     vertex  1.096742e+02 -8.492054e+01  1.000000e+00
     vertex  1.109713e+02 -8.477412e+01  0.000000e+00
     vertex  1.109713e+02 -8.477412e+01  1.000000e+00
   endloop
 endfacet
 facet normal  6.367863e-01 -7.710404e-01  0.000000e+00
   outer loop
     vertex  1.335176e+02 -7.520549e+01  1.000000e+00
     vertex  1.345241e+02 -7.437425e+01  0.000000e+00
     vertex  1.345241e+02 -7.437425e+01  1.000000e+00
   endloop
 endfacet
 facet normal  6.367863e-01 -7.710404e-01  0.000000e+00
   outer loop
     vertex  1.335176e+02 -7.520549e+01  1.000000e+00
     vertex  1.335176e+02 -7.520549e+01  0.000000e+00
     vertex  1.345241e+02 -7.437425e+01  0.000000e+00
   endloop
 endfacet
 facet normal  8.340779e-02 -9.965155e-01  0.000000e+00
   outer loop
     vertex  1.083734e+02 -8.502942e+01  1.000000e+00
     vertex  1.083734e+02 -8.502942e+01  0.000000e+00
     vertex  1.096742e+02 -8.492054e+01  0.000000e+00
   endloop
 endfacet
 facet normal  8.340779e-02 -9.965155e-01  0.000000e+00
   outer loop
     vertex  1.083734e+02 -8.502942e+01  1.000000e+00
     vertex  1.096742e+02 -8.492054e+01  0.000000e+00
     vertex  1.096742e+02 -8.492054e+01  1.000000e+00
   endloop
 endfacet
 facet normal  6.142435e-01 -7.891166e-01  0.000000e+00
   outer loop
     vertex  1.324875e+02 -7.600731e+01  1.000000e+00
     vertex  1.335176e+02 -7.520549e+01  0.000000e+00
     vertex  1.335176e+02 -7.520549e+01  1.000000e+00
   endloop
 endfacet
 facet normal  5.458157e-02 -9.985093e-01  0.000000e+00
   outer loop
     vertex  1.070699e+02 -8.510067e+01  1.000000e+00
     vertex  1.083734e+02 -8.502942e+01  0.000000e+00
     vertex  1.083734e+02 -8.502942e+01  1.000000e+00
   endloop
 endfacet
 facet normal  6.142435e-01 -7.891166e-01  0.000000e+00
   outer loop
     vertex  1.324875e+02 -7.600731e+01  1.000000e+00
     vertex  1.324875e+02 -7.600731e+01  0.000000e+00
     vertex  1.335176e+02 -7.520549e+01  0.000000e+00
   endloop
 endfacet
 facet normal  5.458157e-02 -9.985093e-01  0.000000e+00
   outer loop
     vertex  1.070699e+02 -8.510067e+01  1.000000e+00
     vertex  1.070699e+02 -8.510067e+01  0.000000e+00
     vertex  1.083734e+02 -8.502942e+01  0.000000e+00
   endloop
 endfacet
 facet normal  5.911878e-01 -8.065339e-01  0.000000e+00
   outer loop
     vertex  1.314347e+02 -7.677904e+01  1.000000e+00
     vertex  1.324875e+02 -7.600731e+01  0.000000e+00
     vertex  1.324875e+02 -7.600731e+01  1.000000e+00
   endloop
 endfacet
 facet normal  5.911878e-01 -8.065339e-01  0.000000e+00
   outer loop
     vertex  1.314347e+02 -7.677904e+01  1.000000e+00
     vertex  1.314347e+02 -7.677904e+01  0.000000e+00
     vertex  1.324875e+02 -7.600731e+01  0.000000e+00
   endloop
 endfacet
 facet normal  5.676386e-01 -8.232779e-01  0.000000e+00
   outer loop
     vertex  1.303600e+02 -7.752002e+01  1.000000e+00
     vertex  1.314347e+02 -7.677904e+01  0.000000e+00
     vertex  1.314347e+02 -7.677904e+01  1.000000e+00
   endloop
 endfacet
 facet normal  5.676386e-01 -8.232779e-01  0.000000e+00
   outer loop
     vertex  1.303600e+02 -7.752002e+01  1.000000e+00
     vertex  1.303600e+02 -7.752002e+01  0.000000e+00
     vertex  1.314347e+02 -7.677904e+01  0.000000e+00
   endloop
 endfacet
 facet normal  5.436154e-01 -8.393344e-01  0.000000e+00
   outer loop
     vertex  1.292644e+02 -7.822964e+01  1.000000e+00
     vertex  1.303600e+02 -7.752002e+01  0.000000e+00
     vertex  1.303600e+02 -7.752002e+01  1.000000e+00
   endloop
 endfacet
 facet normal  5.436154e-01 -8.393344e-01  0.000000e+00
   outer loop
     vertex  1.292644e+02 -7.822964e+01  1.000000e+00
     vertex  1.292644e+02 -7.822964e+01  0.000000e+00
     vertex  1.303600e+02 -7.752002e+01  0.000000e+00
   endloop
 endfacet
 facet normal  5.191383e-01 -8.546902e-01  0.000000e+00
   outer loop
     vertex  1.281487e+02 -7.890732e+01  1.000000e+00
     vertex  1.292644e+02 -7.822964e+01  0.000000e+00
     vertex  1.292644e+02 -7.822964e+01  1.000000e+00
   endloop
 endfacet
 facet normal  5.191383e-01 -8.546902e-01  0.000000e+00
   outer loop
     vertex  1.281487e+02 -7.890732e+01  1.000000e+00
     vertex  1.281487e+02 -7.890732e+01  0.000000e+00
     vertex  1.292644e+02 -7.822964e+01  0.000000e+00
   endloop
 endfacet
 facet normal  4.942278e-01 -8.693324e-01  0.000000e+00
   outer loop
     vertex  1.270139e+02 -7.955247e+01  1.000000e+00
     vertex  1.281487e+02 -7.890732e+01  0.000000e+00
     vertex  1.281487e+02 -7.890732e+01  1.000000e+00
   endloop
 endfacet
 facet normal  4.942278e-01 -8.693324e-01  0.000000e+00
   outer loop
     vertex  1.270139e+02 -7.955247e+01  1.000000e+00
     vertex  1.270139e+02 -7.955247e+01  0.000000e+00
     vertex  1.281487e+02 -7.890732e+01  0.000000e+00
   endloop
 endfacet
 facet normal  4.689047e-01 -8.832488e-01  0.000000e+00
   outer loop
     vertex  1.258609e+02 -8.016457e+01  1.000000e+00
     vertex  1.270139e+02 -7.955247e+01  0.000000e+00
     vertex  1.270139e+02 -7.955247e+01  1.000000e+00
   endloop
 endfacet
 facet normal  4.689047e-01 -8.832488e-01  0.000000e+00
   outer loop
     vertex  1.258609e+02 -8.016457e+01  1.000000e+00
     vertex  1.258609e+02 -8.016457e+01  0.000000e+00
     vertex  1.270139e+02 -7.955247e+01  0.000000e+00
   endloop
 endfacet
 facet normal  4.431900e-01 -8.964277e-01  0.000000e+00
   outer loop
     vertex  1.246907e+02 -8.074310e+01  1.000000e+00
     vertex  1.258609e+02 -8.016457e+01  0.000000e+00
     vertex  1.258609e+02 -8.016457e+01  1.000000e+00
   endloop
 endfacet
 facet normal -1.862571e-02 -9.998265e-01  0.000000e+00
   outer loop
     vertex  6.685547e+01 -8.435151e+01  1.000000e+00
     vertex  1.070699e+02 -8.510067e+01  0.000000e+00
     vertex  1.070699e+02 -8.510067e+01  1.000000e+00
   endloop
 endfacet
 facet normal -1.862571e-02 -9.998265e-01 -0.000000e+00
   outer loop
     vertex  6.685547e+01 -8.435151e+01  1.000000e+00
     vertex  6.685547e+01 -8.435151e+01  0.000000e+00
     vertex  1.070699e+02 -8.510067e+01  0.000000e+00
   endloop
 endfacet
 facet normal -6.575209e-02 -9.978360e-01  0.000000e+00
   outer loop
     vertex  3.194875e+00 -8.015662e+01  1.000000e+00
     vertex  6.685547e+01 -8.435151e+01  0.000000e+00
     vertex  6.685547e+01 -8.435151e+01  1.000000e+00
   endloop
 endfacet
 facet normal -6.575209e-02 -9.978360e-01 -0.000000e+00
   outer loop
     vertex  3.194875e+00 -8.015662e+01  1.000000e+00
     vertex  3.194875e+00 -8.015662e+01  0.000000e+00
     vertex  6.685547e+01 -8.435151e+01  0.000000e+00
   endloop
 endfacet
 facet normal -9.867912e-01 -1.619970e-01  0.000000e+00
   outer loop
     vertex -5.607159e+00 -2.653977e+01  1.000000e+00
     vertex  3.194875e+00 -8.015662e+01  0.000000e+00
     vertex  3.194875e+00 -8.015662e+01  1.000000e+00
   endloop
 endfacet
 facet normal -9.867912e-01 -1.619970e-01 -0.000000e+00
   outer loop
     vertex -5.607159e+00 -2.653977e+01  1.000000e+00
     vertex -5.607159e+00 -2.653977e+01  0.000000e+00
     vertex  3.194875e+00 -8.015662e+01  0.000000e+00
   endloop
 endfacet
 facet normal  0.000000e+00  0.000000e+00  1.000000e+00
   outer loop
     vertex  1.537874e+02 -1.176628e+01  1.000000e+00
     vertex  1.431171e+02 -6.460736e+01  1.000000e+00
     vertex  1.620911e+02 -3.546052e+01  1.000000e+00
   endloop
 endfacet
 facet normal  0.000000e+00  0.000000e+00  1.000000e+00
   outer loop
     vertex  1.403272e+02 -3.910760e-01  1.000000e+00
     vertex  1.431171e+02 -6.460736e+01  1.000000e+00
     vertex  1.537874e+02 -1.176628e+01  1.000000e+00
   endloop
 endfacet
 facet normal  0.000000e+00  0.000000e+00  1.000000e+00
   outer loop
     vertex  8.924897e+01 -1.507955e+01  1.000000e+00
     vertex  1.423892e+02 -6.569096e+01  1.000000e+00
     vertex  1.431171e+02 -6.460736e+01  1.000000e+00
   endloop
 endfacet
 facet normal  0.000000e+00  0.000000e+00  1.000000e+00
   outer loop
     vertex  8.924897e+01 -1.507955e+01  1.000000e+00
     vertex  1.416303e+02 -6.675307e+01  1.000000e+00
     vertex  1.423892e+02 -6.569096e+01  1.000000e+00
   endloop
 endfacet
 facet normal  0.000000e+00  0.000000e+00  1.000000e+00
   outer loop
     vertex  8.924897e+01 -1.507955e+01  1.000000e+00
     vertex  1.408410e+02 -6.779281e+01  1.000000e+00
     vertex  1.416303e+02 -6.675307e+01  1.000000e+00
   endloop
 endfacet
 facet normal  0.000000e+00  0.000000e+00  1.000000e+00
   outer loop
     vertex  8.924897e+01 -1.507955e+01  1.000000e+00
     vertex  1.400220e+02 -6.880931e+01  1.000000e+00
     vertex  1.408410e+02 -6.779281e+01  1.000000e+00
   endloop
 endfacet
 facet normal  0.000000e+00  0.000000e+00  1.000000e+00
   outer loop
     vertex  8.924897e+01 -1.507955e+01  1.000000e+00
     vertex  1.391740e+02 -6.980172e+01  1.000000e+00
     vertex  1.400220e+02 -6.880931e+01  1.000000e+00
   endloop
 endfacet
 facet normal  0.000000e+00  0.000000e+00  1.000000e+00
   outer loop
     vertex  8.924897e+01 -1.507955e+01  1.000000e+00
     vertex  1.382977e+02 -7.076922e+01  1.000000e+00
     vertex  1.391740e+02 -6.980172e+01  1.000000e+00
   endloop
 endfacet
 facet normal  0.000000e+00  0.000000e+00  1.000000e+00
   outer loop
     vertex  8.924897e+01 -1.507955e+01  1.000000e+00
     vertex  1.373937e+02 -7.171100e+01  1.000000e+00
     vertex  1.382977e+02 -7.076922e+01  1.000000e+00
   endloop
 endfacet
 facet normal  0.000000e+00  0.000000e+00  1.000000e+00
   outer loop
     vertex  8.924897e+01 -1.507955e+01  1.000000e+00
     vertex  1.364630e+02 -7.262627e+01  1.000000e+00
     vertex  1.373937e+02 -7.171100e+01  1.000000e+00
   endloop
 endfacet
 facet normal  0.000000e+00  0.000000e+00  1.000000e+00
   outer loop
     vertex  8.924897e+01 -1.507955e+01  1.000000e+00
     vertex  1.355062e+02 -7.351427e+01  1.000000e+00
     vertex  1.364630e+02 -7.262627e+01  1.000000e+00
   endloop
 endfacet
 facet normal  0.000000e+00  0.000000e+00  1.000000e+00
   outer loop
     vertex  8.924897e+01 -1.507955e+01  1.000000e+00
     vertex  1.345241e+02 -7.437425e+01  1.000000e+00
     vertex  1.355062e+02 -7.351427e+01  1.000000e+00
   endloop
 endfacet
 facet normal  0.000000e+00  0.000000e+00  1.000000e+00
   outer loop
     vertex  8.924897e+01 -1.507955e+01  1.000000e+00
     vertex  1.335176e+02 -7.520549e+01  1.000000e+00
     vertex  1.345241e+02 -7.437425e+01  1.000000e+00
   endloop
 endfacet
 facet normal  0.000000e+00  0.000000e+00  1.000000e+00
   outer loop
     vertex  8.924897e+01 -1.507955e+01  1.000000e+00
     vertex  1.324875e+02 -7.600731e+01  1.000000e+00
     vertex  1.335176e+02 -7.520549e+01  1.000000e+00
   endloop
 endfacet
 facet normal -0.000000e+00  0.000000e+00  1.000000e+00
   outer loop
     vertex  8.924897e+01 -1.507955e+01  1.000000e+00
     vertex  1.431171e+02 -6.460736e+01  1.000000e+00
     vertex  1.403272e+02 -3.910760e-01  1.000000e+00
   endloop
 endfacet
 facet normal  0.000000e+00  0.000000e+00  1.000000e+00
   outer loop
     vertex  8.924897e+01 -1.507955e+01  1.000000e+00
     vertex  1.314347e+02 -7.677904e+01  1.000000e+00
     vertex  1.324875e+02 -7.600731e+01  1.000000e+00
   endloop
 endfacet
 facet normal  0.000000e+00  0.000000e+00  1.000000e+00
   outer loop
     vertex  8.924897e+01 -1.507955e+01  1.000000e+00
     vertex  1.303600e+02 -7.752002e+01  1.000000e+00
     vertex  1.314347e+02 -7.677904e+01  1.000000e+00
   endloop
 endfacet
 facet normal  0.000000e+00  0.000000e+00  1.000000e+00
   outer loop
     vertex  8.924897e+01 -1.507955e+01  1.000000e+00
     vertex  1.292644e+02 -7.822964e+01  1.000000e+00
     vertex  1.303600e+02 -7.752002e+01  1.000000e+00
   endloop
 endfacet
 facet normal  0.000000e+00  0.000000e+00  1.000000e+00
   outer loop
     vertex  8.924897e+01 -1.507955e+01  1.000000e+00
     vertex  1.281487e+02 -7.890732e+01  1.000000e+00
     vertex  1.292644e+02 -7.822964e+01  1.000000e+00
   endloop
 endfacet
 facet normal  0.000000e+00  0.000000e+00  1.000000e+00
   outer loop
     vertex  8.924897e+01 -1.507955e+01  1.000000e+00
     vertex  1.270139e+02 -7.955247e+01  1.000000e+00
     vertex  1.281487e+02 -7.890732e+01  1.000000e+00
   endloop
 endfacet
 facet normal  0.000000e+00  0.000000e+00  1.000000e+00
   outer loop
     vertex  8.924897e+01 -1.507955e+01  1.000000e+00
     vertex  1.258609e+02 -8.016457e+01  1.000000e+00
     vertex  1.270139e+02 -7.955247e+01  1.000000e+00
   endloop
 endfacet
 facet normal  0.000000e+00  0.000000e+00  1.000000e+00
   outer loop
     vertex  8.924897e+01 -1.507955e+01  1.000000e+00
     vertex  1.246907e+02 -8.074310e+01  1.000000e+00
     vertex  1.258609e+02 -8.016457e+01  1.000000e+00
   endloop
 endfacet
 facet normal  0.000000e+00  0.000000e+00  1.000000e+00
   outer loop
     vertex  8.924897e+01 -1.507955e+01  1.000000e+00
     vertex  1.235043e+02 -8.128758e+01  1.000000e+00
     vertex  1.246907e+02 -8.074310e+01  1.000000e+00
   endloop
 endfacet
 facet normal  0.000000e+00  0.000000e+00  1.000000e+00
   outer loop
     vertex  8.924897e+01 -1.507955e+01  1.000000e+00
     vertex  1.223027e+02 -8.179756e+01  1.000000e+00
     vertex  1.235043e+02 -8.128758e+01  1.000000e+00
   endloop
 endfacet
 facet normal  0.000000e+00  0.000000e+00  1.000000e+00
   outer loop
     vertex  8.924897e+01 -1.507955e+01  1.000000e+00
     vertex  1.210868e+02 -8.227260e+01  1.000000e+00
     vertex  1.223027e+02 -8.179756e+01  1.000000e+00
   endloop
 endfacet
 facet normal  0.000000e+00  0.000000e+00  1.000000e+00
   outer loop
     vertex  8.924897e+01 -1.507955e+01  1.000000e+00
     vertex  1.198577e+02 -8.271232e+01  1.000000e+00
     vertex  1.210868e+02 -8.227260e+01  1.000000e+00
   endloop
 endfacet
 facet normal  0.000000e+00  0.000000e+00  1.000000e+00
   outer loop
     vertex  8.924897e+01 -1.507955e+01  1.000000e+00
     vertex  1.186164e+02 -8.311634e+01  1.000000e+00
     vertex  1.198577e+02 -8.271232e+01  1.000000e+00
   endloop
 endfacet
 facet normal  0.000000e+00  0.000000e+00  1.000000e+00
   outer loop
     vertex  8.924897e+01 -1.507955e+01  1.000000e+00
     vertex  1.173640e+02 -8.348433e+01  1.000000e+00
     vertex  1.186164e+02 -8.311634e+01  1.000000e+00
   endloop
 endfacet
 facet normal  0.000000e+00  0.000000e+00  1.000000e+00
   outer loop
     vertex  8.924897e+01 -1.507955e+01  1.000000e+00
     vertex  1.161014e+02 -8.381598e+01  1.000000e+00
     vertex  1.173640e+02 -8.348433e+01  1.000000e+00
   endloop
 endfacet
 facet normal  0.000000e+00  0.000000e+00  1.000000e+00
   outer loop
     vertex  8.924897e+01 -1.507955e+01  1.000000e+00
     vertex  1.148298e+02 -8.411102e+01  1.000000e+00
     vertex  1.161014e+02 -8.381598e+01  1.000000e+00
   endloop
 endfacet
 facet normal  0.000000e+00  0.000000e+00  1.000000e+00
   outer loop
     vertex  8.924897e+01 -1.507955e+01  1.000000e+00
     vertex  1.135502e+02 -8.436919e+01  1.000000e+00
     vertex  1.148298e+02 -8.411102e+01  1.000000e+00
   endloop
 endfacet
 facet normal  0.000000e+00  0.000000e+00  1.000000e+00
   outer loop
     vertex  8.924897e+01 -1.507955e+01  1.000000e+00
     vertex  1.122637e+02 -8.459029e+01  1.000000e+00
     vertex  1.135502e+02 -8.436919e+01  1.000000e+00
   endloop
 endfacet
 facet normal  0.000000e+00  0.000000e+00  1.000000e+00
   outer loop
     vertex  8.924897e+01 -1.507955e+01  1.000000e+00
     vertex  1.109713e+02 -8.477412e+01  1.000000e+00
     vertex  1.122637e+02 -8.459029e+01  1.000000e+00
   endloop
 endfacet
 facet normal  0.000000e+00  0.000000e+00  1.000000e+00
   outer loop
     vertex  8.924897e+01 -1.507955e+01  1.000000e+00
     vertex  1.096742e+02 -8.492054e+01  1.000000e+00
     vertex  1.109713e+02 -8.477412e+01  1.000000e+00
   endloop
 endfacet
 facet normal  0.000000e+00  0.000000e+00  1.000000e+00
   outer loop
     vertex  8.924897e+01 -1.507955e+01  1.000000e+00
     vertex  1.083734e+02 -8.502942e+01  1.000000e+00
     vertex  1.096742e+02 -8.492054e+01  1.000000e+00
   endloop
 endfacet
 facet normal  0.000000e+00  0.000000e+00  1.000000e+00
   outer loop
     vertex  8.924897e+01 -1.507955e+01  1.000000e+00
     vertex  1.070699e+02 -8.510067e+01  1.000000e+00
     vertex  1.083734e+02 -8.502942e+01  1.000000e+00
   endloop
 endfacet
 facet normal  0.000000e+00  0.000000e+00  1.000000e+00
   outer loop
     vertex  8.924897e+01 -1.507955e+01  1.000000e+00
     vertex  6.685547e+01 -8.435151e+01  1.000000e+00
     vertex  1.070699e+02 -8.510067e+01  1.000000e+00
   endloop
 endfacet
 facet normal  0.000000e+00  0.000000e+00  1.000000e+00
   outer loop
     vertex  4.161732e+01 -6.327042e+00  1.000000e+00
     vertex  6.685547e+01 -8.435151e+01  1.000000e+00
     vertex  8.924897e+01 -1.507955e+01  1.000000e+00
   endloop
 endfacet
 facet normal  0.000000e+00  0.000000e+00  1.000000e+00
   outer loop
     vertex  4.161732e+01 -6.327042e+00  1.000000e+00
     vertex  3.194875e+00 -8.015662e+01  1.000000e+00
     vertex  6.685547e+01 -8.435151e+01  1.000000e+00
   endloop
 endfacet
 facet normal -0.000000e+00  0.000000e+00  1.000000e+00
   outer loop
     vertex -5.607159e+00 -2.653977e+01  1.000000e+00
     vertex  3.194875e+00 -8.015662e+01  1.000000e+00
     vertex  4.161732e+01 -6.327042e+00  1.000000e+00
   endloop
 endfacet
 facet normal  0.000000e+00 -0.000000e+00 -1.000000e+00
   outer loop
     vertex  1.537874e+02 -1.176628e+01  0.000000e+00
     vertex  1.620911e+02 -3.546052e+01  0.000000e+00
     vertex  1.431171e+02 -6.460736e+01  0.000000e+00
   endloop
 endfacet
 facet normal  0.000000e+00  0.000000e+00 -1.000000e+00
   outer loop
     vertex  1.403272e+02 -3.910760e-01  0.000000e+00
     vertex  1.537874e+02 -1.176628e+01  0.000000e+00
     vertex  1.431171e+02 -6.460736e+01  0.000000e+00
   endloop
 endfacet
 facet normal  0.000000e+00  0.000000e+00 -1.000000e+00
   outer loop
     vertex  8.924897e+01 -1.507955e+01  0.000000e+00
     vertex  1.431171e+02 -6.460736e+01  0.000000e+00
     vertex  1.423892e+02 -6.569096e+01  0.000000e+00
   endloop
 endfacet
 facet normal  0.000000e+00  0.000000e+00 -1.000000e+00
   outer loop
     vertex  8.924897e+01 -1.507955e+01  0.000000e+00
     vertex  1.423892e+02 -6.569096e+01  0.000000e+00
     vertex  1.416303e+02 -6.675307e+01  0.000000e+00
   endloop
 endfacet
 facet normal  0.000000e+00  0.000000e+00 -1.000000e+00
   outer loop
     vertex  8.924897e+01 -1.507955e+01  0.000000e+00
     vertex  1.416303e+02 -6.675307e+01  0.000000e+00
     vertex  1.408410e+02 -6.779281e+01  0.000000e+00
   endloop
 endfacet
 facet normal  0.000000e+00  0.000000e+00 -1.000000e+00
   outer loop
     vertex  8.924897e+01 -1.507955e+01  0.000000e+00
     vertex  1.408410e+02 -6.779281e+01  0.000000e+00
     vertex  1.400220e+02 -6.880931e+01  0.000000e+00
   endloop
 endfacet
 facet normal  0.000000e+00  0.000000e+00 -1.000000e+00
   outer loop
     vertex  8.924897e+01 -1.507955e+01  0.000000e+00
     vertex  1.400220e+02 -6.880931e+01  0.000000e+00
     vertex  1.391740e+02 -6.980172e+01  0.000000e+00
   endloop
 endfacet
 facet normal  0.000000e+00  0.000000e+00 -1.000000e+00
   outer loop
     vertex  8.924897e+01 -1.507955e+01  0.000000e+00
     vertex  1.391740e+02 -6.980172e+01  0.000000e+00
     vertex  1.382977e+02 -7.076922e+01  0.000000e+00
   endloop
 endfacet
 facet normal  0.000000e+00  0.000000e+00 -1.000000e+00
   outer loop
     vertex  8.924897e+01 -1.507955e+01  0.000000e+00
     vertex  1.382977e+02 -7.076922e+01  0.000000e+00
     vertex  1.373937e+02 -7.171100e+01  0.000000e+00
   endloop
 endfacet
 facet normal  0.000000e+00  0.000000e+00 -1.000000e+00
   outer loop
     vertex  8.924897e+01 -1.507955e+01  0.000000e+00
     vertex  1.373937e+02 -7.171100e+01  0.000000e+00
     vertex  1.364630e+02 -7.262627e+01  0.000000e+00
   endloop
 endfacet
 facet normal  0.000000e+00  0.000000e+00 -1.000000e+00
   outer loop
     vertex  8.924897e+01 -1.507955e+01  0.000000e+00
     vertex  1.364630e+02 -7.262627e+01  0.000000e+00
     vertex  1.355062e+02 -7.351427e+01  0.000000e+00
   endloop
 endfacet
 facet normal  0.000000e+00  0.000000e+00 -1.000000e+00
   outer loop
     vertex  8.924897e+01 -1.507955e+01  0.000000e+00
     vertex  1.355062e+02 -7.351427e+01  0.000000e+00
     vertex  1.345241e+02 -7.437425e+01  0.000000e+00
   endloop
 endfacet
 facet normal  0.000000e+00  0.000000e+00 -1.000000e+00
   outer loop
     vertex  8.924897e+01 -1.507955e+01  0.000000e+00
     vertex  1.345241e+02 -7.437425e+01  0.000000e+00
     vertex  1.335176e+02 -7.520549e+01  0.000000e+00
   endloop
 endfacet
 facet normal  0.000000e+00  0.000000e+00 -1.000000e+00
   outer loop
     vertex  8.924897e+01 -1.507955e+01  0.000000e+00
     vertex  1.335176e+02 -7.520549e+01  0.000000e+00
     vertex  1.324875e+02 -7.600731e+01  0.000000e+00
   endloop
 endfacet
 facet normal  0.000000e+00  0.000000e+00 -1.000000e+00
   outer loop
     vertex  8.924897e+01 -1.507955e+01  0.000000e+00
     vertex  1.403272e+02 -3.910760e-01  0.000000e+00
     vertex  1.431171e+02 -6.460736e+01  0.000000e+00
   endloop
 endfacet
 facet normal  0.000000e+00  0.000000e+00 -1.000000e+00
   outer loop
     vertex  8.924897e+01 -1.507955e+01  0.000000e+00
     vertex  1.324875e+02 -7.600731e+01  0.000000e+00
     vertex  1.314347e+02 -7.677904e+01  0.000000e+00
   endloop
 endfacet
 facet normal  0.000000e+00  0.000000e+00 -1.000000e+00
   outer loop
     vertex  8.924897e+01 -1.507955e+01  0.000000e+00
     vertex  1.314347e+02 -7.677904e+01  0.000000e+00
     vertex  1.303600e+02 -7.752002e+01  0.000000e+00
   endloop
 endfacet
 facet normal  0.000000e+00  0.000000e+00 -1.000000e+00
   outer loop
     vertex  8.924897e+01 -1.507955e+01  0.000000e+00
     vertex  1.303600e+02 -7.752002e+01  0.000000e+00
     vertex  1.292644e+02 -7.822964e+01  0.000000e+00
   endloop
 endfacet
 facet normal  0.000000e+00  0.000000e+00 -1.000000e+00
   outer loop
     vertex  8.924897e+01 -1.507955e+01  0.000000e+00
     vertex  1.292644e+02 -7.822964e+01  0.000000e+00
     vertex  1.281487e+02 -7.890732e+01  0.000000e+00
   endloop
 endfacet
 facet normal  0.000000e+00  0.000000e+00 -1.000000e+00
   outer loop
     vertex  8.924897e+01 -1.507955e+01  0.000000e+00
     vertex  1.281487e+02 -7.890732e+01  0.000000e+00
     vertex  1.270139e+02 -7.955247e+01  0.000000e+00
   endloop
 endfacet
 facet normal  0.000000e+00  0.000000e+00 -1.000000e+00
   outer loop
     vertex  8.924897e+01 -1.507955e+01  0.000000e+00
     vertex  1.270139e+02 -7.955247e+01  0.000000e+00
     vertex  1.258609e+02 -8.016457e+01  0.000000e+00
   endloop
 endfacet
 facet normal  0.000000e+00  0.000000e+00 -1.000000e+00
   outer loop
     vertex  8.924897e+01 -1.507955e+01  0.000000e+00
     vertex  1.258609e+02 -8.016457e+01  0.000000e+00
     vertex  1.246907e+02 -8.074310e+01  0.000000e+00
   endloop
 endfacet
 facet normal  0.000000e+00  0.000000e+00 -1.000000e+00
   outer loop
     vertex  8.924897e+01 -1.507955e+01  0.000000e+00
     vertex  1.246907e+02 -8.074310e+01  0.000000e+00
     vertex  1.235043e+02 -8.128758e+01  0.000000e+00
   endloop
 endfacet
 facet normal  0.000000e+00  0.000000e+00 -1.000000e+00
   outer loop
     vertex  8.924897e+01 -1.507955e+01  0.000000e+00
     vertex  1.235043e+02 -8.128758e+01  0.000000e+00
     vertex  1.223027e+02 -8.179756e+01  0.000000e+00
   endloop
 endfacet
 facet normal  0.000000e+00  0.000000e+00 -1.000000e+00
   outer loop
     vertex  8.924897e+01 -1.507955e+01  0.000000e+00
     vertex  1.223027e+02 -8.179756e+01  0.000000e+00
     vertex  1.210868e+02 -8.227260e+01  0.000000e+00
   endloop
 endfacet
 facet normal  0.000000e+00  0.000000e+00 -1.000000e+00
   outer loop
     vertex  8.924897e+01 -1.507955e+01  0.000000e+00
     vertex  1.210868e+02 -8.227260e+01  0.000000e+00
     vertex  1.198577e+02 -8.271232e+01  0.000000e+00
   endloop
 endfacet
 facet normal  0.000000e+00  0.000000e+00 -1.000000e+00
   outer loop
     vertex  8.924897e+01 -1.507955e+01  0.000000e+00
     vertex  1.198577e+02 -8.271232e+01  0.000000e+00
     vertex  1.186164e+02 -8.311634e+01  0.000000e+00
   endloop
 endfacet
 facet normal  0.000000e+00  0.000000e+00 -1.000000e+00
   outer loop
     vertex  8.924897e+01 -1.507955e+01  0.000000e+00
     vertex  1.186164e+02 -8.311634e+01  0.000000e+00
     vertex  1.173640e+02 -8.348433e+01  0.000000e+00
   endloop
 endfacet
 facet normal  0.000000e+00  0.000000e+00 -1.000000e+00
   outer loop
     vertex  8.924897e+01 -1.507955e+01  0.000000e+00
     vertex  1.173640e+02 -8.348433e+01  0.000000e+00
     vertex  1.161014e+02 -8.381598e+01  0.000000e+00
   endloop
 endfacet
 facet normal  0.000000e+00  0.000000e+00 -1.000000e+00
   outer loop
     vertex  8.924897e+01 -1.507955e+01  0.000000e+00
     vertex  1.161014e+02 -8.381598e+01  0.000000e+00
     vertex  1.148298e+02 -8.411102e+01  0.000000e+00
   endloop
 endfacet
 facet normal  0.000000e+00  0.000000e+00 -1.000000e+00
   outer loop
     vertex  8.924897e+01 -1.507955e+01  0.000000e+00
     vertex  1.148298e+02 -8.411102e+01  0.000000e+00
     vertex  1.135502e+02 -8.436919e+01  0.000000e+00
   endloop
 endfacet
 facet normal  0.000000e+00  0.000000e+00 -1.000000e+00
   outer loop
     vertex  8.924897e+01 -1.507955e+01  0.000000e+00
     vertex  1.135502e+02 -8.436919e+01  0.000000e+00
     vertex  1.122637e+02 -8.459029e+01  0.000000e+00
   endloop
 endfacet
 facet normal  0.000000e+00  0.000000e+00 -1.000000e+00
   outer loop
     vertex  8.924897e+01 -1.507955e+01  0.000000e+00
     vertex  1.122637e+02 -8.459029e+01  0.000000e+00
     vertex  1.109713e+02 -8.477412e+01  0.000000e+00
   endloop
 endfacet
 facet normal  0.000000e+00  0.000000e+00 -1.000000e+00
   outer loop
     vertex  8.924897e+01 -1.507955e+01  0.000000e+00
     vertex  1.109713e+02 -8.477412e+01  0.000000e+00
     vertex  1.096742e+02 -8.492054e+01  0.000000e+00
   endloop
 endfacet
 facet normal  0.000000e+00  0.000000e+00 -1.000000e+00
   outer loop
     vertex  8.924897e+01 -1.507955e+01  0.000000e+00
     vertex  1.096742e+02 -8.492054e+01  0.000000e+00
     vertex  1.083734e+02 -8.502942e+01  0.000000e+00
   endloop
 endfacet
 facet normal  0.000000e+00  0.000000e+00 -1.000000e+00
   outer loop
     vertex  8.924897e+01 -1.507955e+01  0.000000e+00
     vertex  1.083734e+02 -8.502942e+01  0.000000e+00
     vertex  1.070699e+02 -8.510067e+01  0.000000e+00
   endloop
 endfacet
 facet normal  0.000000e+00 -0.000000e+00 -1.000000e+00
   outer loop
     vertex  8.924897e+01 -1.507955e+01  0.000000e+00
     vertex  1.070699e+02 -8.510067e+01  0.000000e+00
     vertex  6.685547e+01 -8.435151e+01  0.000000e+00
   endloop
 endfacet
 facet normal  0.000000e+00  0.000000e+00 -1.000000e+00
   outer loop
     vertex  4.161732e+01 -6.327042e+00  0.000000e+00
     vertex  8.924897e+01 -1.507955e+01  0.000000e+00
     vertex  6.685547e+01 -8.435151e+01  0.000000e+00
   endloop
 endfacet
 facet normal  0.000000e+00 -0.000000e+00 -1.000000e+00
   outer loop
     vertex  4.161732e+01 -6.327042e+00  0.000000e+00
     vertex  6.685547e+01 -8.435151e+01  0.000000e+00
     vertex  3.194875e+00 -8.015662e+01  0.000000e+00
   endloop
 endfacet
 facet normal  0.000000e+00  0.000000e+00 -1.000000e+00
   outer loop
     vertex -5.607159e+00 -2.653977e+01  0.000000e+00
     vertex  4.161732e+01 -6.327042e+00  0.000000e+00
     vertex  3.194875e+00 -8.015662e+01  0.000000e+00
   endloop
 endfacet
endsolid
