solid STL generated by MeshLab
  facet normal -0.000000e+00 -1.000000e+00 -0.000000e+00
    outer loop
      vertex   4.001000e-03 -7.992000e-03  4.012000e-03
      vertex  -3.999000e-03 -7.992000e-03  4.012000e-03
      vertex   4.001000e-03 -7.992000e-03 -3.989000e-03
    endloop
  endfacet
  facet normal  0.000000e+00 -1.000000e+00  0.000000e+00
    outer loop
      vertex   4.001000e-03 -7.992000e-03 -3.989000e-03
      vertex  -3.999000e-03 -7.992000e-03  4.012000e-03
      vertex  -3.999000e-03 -7.992000e-03 -3.989000e-03
    endloop
  endfacet
endsolid
