solid 
 facet normal -1.000000e+00  0.000000e+00  0.000000e+00
   outer loop
     vertex -5.000000e-01 -5.000000e-01 -4.000000e-03
     vertex -5.000000e-01  5.000000e-01 -4.000000e-03
     vertex -5.000000e-01  5.000000e-01 -1.400000e-02
   endloop
 endfacet
 facet normal -1.000000e+00  0.000000e+00  0.000000e+00
   outer loop
     vertex -5.000000e-01 -5.000000e-01 -4.000000e-03
     vertex -5.000000e-01  5.000000e-01 -1.400000e-02
     vertex -5.000000e-01 -5.000000e-01 -1.400000e-02
   endloop
 endfacet
 facet normal  1.000000e+00 -0.000000e+00  0.000000e+00
   outer loop
     vertex  5.000000e-01 -5.000000e-01 -4.000000e-03
     vertex  5.000000e-01  5.000000e-01 -1.400000e-02
     vertex  5.000000e-01  5.000000e-01 -4.000000e-03
   endloop
 endfacet
 facet normal  1.000000e+00  0.000000e+00  0.000000e+00
   outer loop
     vertex  5.000000e-01 -5.000000e-01 -4.000000e-03
     vertex  5.000000e-01 -5.000000e-01 -1.400000e-02
     vertex  5.000000e-01  5.000000e-01 -1.400000e-02
   endloop
 endfacet
 facet normal  0.000000e+00 -1.000000e+00 -0.000000e+00
   outer loop
     vertex  5.000000e-01 -5.000000e-01 -4.000000e-03
     vertex -5.000000e-01 -5.000000e-01 -1.400000e-02
     vertex  5.000000e-01 -5.000000e-01 -1.400000e-02
   endloop
 endfacet
 facet normal -0.000000e+00 -1.000000e+00  0.000000e+00
   outer loop
     vertex  5.000000e-01 -5.000000e-01 -4.000000e-03
     vertex -5.000000e-01 -5.000000e-01 -4.000000e-03
     vertex -5.000000e-01 -5.000000e-01 -1.400000e-02
   endloop
 endfacet
 facet normal  0.000000e+00  1.000000e+00  0.000000e+00
   outer loop
     vertex  5.000000e-01  5.000000e-01 -4.000000e-03
     vertex  5.000000e-01  5.000000e-01 -1.400000e-02
     vertex -5.000000e-01  5.000000e-01 -1.400000e-02
   endloop
 endfacet
 facet normal  0.000000e+00  1.000000e+00  0.000000e+00
   outer loop
     vertex  5.000000e-01  5.000000e-01 -4.000000e-03
     vertex -5.000000e-01  5.000000e-01 -1.400000e-02
     vertex -5.000000e-01  5.000000e-01 -4.000000e-03
   endloop
 endfacet
 facet normal -0.000000e+00  0.000000e+00 -1.000000e+00
   outer loop
     vertex  5.000000e-01  5.000000e-01 -1.400000e-02
     vertex -5.000000e-01 -5.000000e-01 -1.400000e-02
     vertex -5.000000e-01  5.000000e-01 -1.400000e-02
   endloop
 endfacet
 facet normal  0.000000e+00 -0.000000e+00 -1.000000e+00
   outer loop
     vertex  5.000000e-01  5.000000e-01 -1.400000e-02
     vertex  5.000000e-01 -5.000000e-01 -1.400000e-02
     vertex -5.000000e-01 -5.000000e-01 -1.400000e-02
   endloop
 endfacet
 facet normal  0.000000e+00  0.000000e+00  1.000000e+00
   outer loop
     vertex  5.000000e-01  5.000000e-01 -4.000000e-03
     vertex -5.000000e-01  5.000000e-01 -4.000000e-03
     vertex -5.000000e-01 -5.000000e-01 -4.000000e-03
   endloop
 endfacet
 facet normal  0.000000e+00  0.000000e+00  1.000000e+00
   outer loop
     vertex  5.000000e-01  5.000000e-01 -4.000000e-03
     vertex -5.000000e-01 -5.000000e-01 -4.000000e-03
     vertex  5.000000e-01 -5.000000e-01 -4.000000e-03
   endloop
 endfacet
endsolid
